<?xml version="1.0" standalone="no"?>
<!DOCTYPE svg PUBLIC "-//W3C//DTD SVG 1.1//EN" "http://www.w3.org/Graphics/SVG/1.1/DTD/svg11.dtd">
<svg t="1739170531880" class="icon" viewBox="0 0 1024 1024" version="1.1" xmlns="http://www.w3.org/2000/svg" p-id="1255"
  width="200" height="200">
  <path
    d="M452.792656 999.289705c-21.151475-52.677246-33.456262-111.632787-40.758558-170.974426-15.192131-123.551475-20.647869-248.177311-19.976393-373.373902 0.016787-5.33823 0.503607-10.659672 2.618754-13.04341 6.026492 8.309508 13.832393-7.38623 19.321705-13.597377 17.794098-20.144262 27.86623-32.264393 43.679475-50.813901-26.388984 2.199082-49.37023 3.441311-68.490491 28.420196-34.883148 45.526033-70.941377 89.30623-106.630296 133.657181-5.237508 6.496525-7.268721 13.765246-7.554098 23.552-3.189508 110.692721 10.592525 217.390164 39.113443 320.663082 0.940066 3.357377 3.021639 10.45823 4.062426 13.748459 4.36459 13.496656 7.067279 24.03882 2.635541 12.707672C271.175344 789.033967 238.625574 649.451016 243.98059 508.407607c14.839607 8.544525 26.439344 0.75541 36.964721-10.676459 38.492328-41.849705 77.55541-82.843279 111.028459-132.700328 4.431738-6.614033 8.964197-8.376656 15.393574-8.343082a285.041311 285.041311 0 0 0 48.849836-4.31423c-5.321443-12.539803-13.496656-16.854033-22.444065-19.137049-23.837377-6.093639-46.852197 0.251803-69.447345 9.921049-22.057967 9.43423-45.928918 20.631082-64.411278 41.967213-1.309377 1.51082-4.868197-4.36459-6.681181-6.395803-9.165639-10.156066-20.278557-26.237902-29.024524-37.065443-1.158295-1.443672 3.307016-8.494164 3.642754-10.642885 8.427016-18.784525 9.501377-76.850361 18.096262-118.817574 13.664525-66.711082 34.043803-137.43423 61.204984-188.248131 1.024-1.947279 2.199082-3.777049 4.263869-4.968918-19.590295 49.554885-31.425049 102.61823-40.187804 157.15882-8.796328 54.75882-12.523016 110.239475-12.841967 168.271738 26.691148-8.94741 52.341508-17.324066 77.891148-26.221115 11.398295-3.961705 22.79659-8.192 33.808787-13.731672 9.70282-4.884984 18.297705-3.810623 27.211541 2.887344 6.94977 5.237508 14.386361 9.232787 22.79659 14.520656-3.139148-24.559213-22.897311-36.763279-28.285902-37.434754-18.868459-2.31659-37.904787-0.671475-56.840393 0.100721-5.170361 0.21823-12.993049 1.158295-17.172984 5.338229-4.465311 4.465311-2.182295 9.43423-5.741115 4.666755-4.465311-5.942557-11.347934-15.242492-14.906754-22.108328-1.863344-3.60918-2.232656-3.307016-1.510819-8.024131 9.786754-63.790164 25.230689-148.144262 45.072786-219.773902 2.299803-8.343082 10.441443-35.940721 12.942689-36.276459a582.253115 582.253115 0 0 0-8.494164 37.770492c-14.705311 84.572328-32.684066 155.480131-27.026885 214.905705 0.26859 3.021639 5.623607 2.249443 12.405508 1.846557 21.487213-1.29259 36.864-0.75541 58.216918-3.777049 8.829902-1.259016 17.928393-6.798689 19.875672-2.769836 5.556459 11.53259 20.177836 31.895082 28.705574 43.796983 0.956852-15.645377 4.868197-25.952525 15.192131-28.974164-1.812984 8.242361-4.062426 14.772459-4.280656 27.429771-0.117508 3.139148 0 7.033705 0.97364 8.309508 2.048-6.513311 4.532459-13.563803 7.554098-14.571016 4.532459 8.510951 15.158557 10.172852 21.268984 0.453246 3.038426 1.342951 5.908984 7.084066 8.443803 11.280786 5.858623-11.75082 0.940066-26.489705-1.980852-34.681704 3.525246 0.251803 7.453377 1.796197 10.038557 5.506098 4.331016 7.016918 5.086426 11.180066 5.724328 23.568787 6.026492-7.117639 24.35777-26.724721 30.98859-36.377181 5.321443-7.772328 2.031213-0.033574 9.467803 1.007214 21.705443 3.105574 41.262164 4.431738 63.034754 6.328655 3.139148 0.26859 8.611672-0.570754 12.338361-1.091147 0.788984-88.60118-19.321705-177.722754-37.888-261.60682 2.249443 1.091148 4.868197 8.108066 5.086426 8.796328 24.072393 75.675279 47.171148 178.881049 64.327344 257.896918-1.091148 5.65718-6.916197 9.534951-16.081836 19.120262-3.021639 3.172721-5.892197 6.94977-6.697967 7.92341-12.674098-2.904131-57.444721-11.04577-70.504918-11.851541-23.048393-1.410098-31.240393 6.916197-40.070295 41.530754 8.359869-5.237508 16.551869-12.086557 22.813377-17.072262 10.374295-8.292721 19.18741-4.868197 30.652853-0.520393 36.494689 13.782033 73.24118 26.221115 111.246688 39.650622 3.021639-113.328262-21.336131-232.498361-57.276852-332.212459 1.074361-0.671475 8.594885 11.196852 9.937836 15.057837a791.837377 791.837377 0 0 1 32.784787 87.409311c18.230557 58.989115 32.566557 119.858361 38.475541 183.950689 1.930492 19.18741 10.122492 31.710426 10.122491 31.710426-1.930492 4.465311-25.700721 31.559344-33.070164 38.542688a259.693115 259.693115 0 0 0-22.830164-16.484721c-31.96223-14.017049-68.020459-31.458623-106.00918-28.621639-11.985836 0.889705-20.950033 3.491672-34.077377 15.762885 13.597377 9.534951 27.698361 9.837115 41.195017 7.873049 12.204066-1.796197 20.48 3.777049 28.537704 15.192131 35.252459 49.95777 74.768787 92.781115 116.836722 131.273443 8.275934 7.587672 16.333639 11.280787 25.398557 3.323803 16.619016 62.329705-53.550164 392.141639-78.36118 411.832656 3.407738-10.156066 9.501377-26.422557 10.558951-29.981377 37.40118-137.602098 38.744131-294.341246 39.029508-302.398951 1.141508-31.96223-2.85377-44.099148-16.551869-59.945967-31.777574-36.813639-63.387279-73.879082-95.097705-110.793443-2.501246-2.920918-5.489311-5.12-7.721967-8.343082-22.511213-32.633705-23.669508-22.30977-63.924459-27.614426 17.878033 21.520787 33.842361 41.22859 50.293508 60.14741 2.568393 2.937705 4.280656 4.733902 9.148852-1.980853 4.85141 7.604459 4.36459 92.126426 3.693115 135.755541-1.309377 81.768918-6.41259 163.101377-18.70059 243.241967-9.686033 63.236197-21.671869 125.515541-45.442098 182.087345-1.77941 4.247082-5.623607 13.144131-8.443804 13.04341 23.870951-59.156984 33.355541-143.007475 38.391607-215.157509 6.882623-98.270426 4.36459-207.032656-0.26859-305.303082-0.302164-6.479738 2.400525-2.669115 3.424524-9.333508 0.654689-4.230295 1.846557-8.897049 1.158295-12.82518-3.105574-17.911607-36.763279-63.588721-52.324721-69.615213 2.115148 9.400656 3.239869 17.978754 5.892197 24.743869 5.321443 13.563803 8.074492 30.417836 6.379016 43.578754-9.299934 72.418623-21.72223 130.937705-40.993573 193.015606-0.503607 1.56118-1.410098 2.887344-2.954492 6.060066l-5.405377-16.954754c-1.896918 5.489311-3.189508 9.199213-5.438951 15.779672-4.750689-13.630951-9.367082-25.264262-12.942689-37.468328-16.92118-57.814033-24.911738-118.481836-28.705573-180.257574-0.48682-7.738754 3.021639-16.098623 5.086426-23.954885 2.031213-7.738754 4.58282-15.225705 6.916196-22.813377l-2.702688-3.307016c-4.129574 3.55882-9.031344 6.127213-12.254426 10.877901a1379.244066 1379.244066 0 0 0-34.312394 53.650885c-1.678689 2.719475-1.947279 8.007344-1.628328 11.918689 0.654689 8.141639 1.107934 8.175213 4.146361 13.026623-3.995279 107.805377-7.050492 226.774033 2.350164 334.243672 5.942557 67.483279 16.316852 133.405377 40.389246 193.771016-1.410098 1.77941-6.127213-7.134426-8.897049-14.403147"
    p-id="1256"></path>
</svg>